<svg width="31" height="30" viewBox="0 0 31 30" fill="none" xmlns="http://www.w3.org/2000/svg">
<path d="M26.7001 11.6667V26.6667H3.33345V3.33333H18.3334V0H3.36678C1.53345 0 0.0334473 1.5 0.0334473 3.33333V26.6667C0.0334473 28.5 1.53345 30 3.36678 30H26.7001C28.5334 30 30.0334 28.5 30.0334 26.6667V11.6667H26.7001ZM23.3334 11.6667L24.9001 8.23333L28.3334 6.66667L24.9001 5.1L23.3334 1.66667L21.7668 5.1L18.3334 6.66667L21.7668 8.23333L23.3334 11.6667ZM17.0834 12.9167L15.0001 8.33333L12.9168 12.9167L8.33345 15L12.9168 17.0833L15.0001 21.6667L17.0834 17.0833L21.6668 15L17.0834 12.9167Z" fill="white"/>
</svg>
